<?xml version="1.0" standalone="no"?>
<!DOCTYPE svg PUBLIC "-//W3C//DTD SVG 20010904//EN"
 "http://www.w3.org/TR/2001/REC-SVG-20010904/DTD/svg10.dtd">
<svg version="1.0" xmlns="http://www.w3.org/2000/svg"
 width="500.000000pt" height="500.000000pt" viewBox="0 0 500.000000 500.000000"
 preserveAspectRatio="xMidYMid meet">
<metadata>
Created by potrace 1.14, written by Peter Selinger 2001-2017
</metadata>
<g transform="translate(0.000000,500.000000) scale(0.100000,-0.100000)"
fill="#000000" stroke="none">
<path d="M1195 4150 c-16 -11 -38 -34 -47 -52 -17 -31 -18 -102 -18 -1093 0
-1183 -5 -1103 69 -1152 l34 -23 1265 0 1265 0 34 21 c73 45 68 -33 71 1109 2
564 0 1050 -3 1080 -6 45 -13 61 -45 92 l-38 38 -1278 0 c-1257 0 -1280 0
-1309 -20z m2559 -86 c14 -14 16 -124 16 -1058 0 -884 -2 -1045 -14 -1062 -14
-19 -40 -19 -1243 -21 -977 -2 -1233 0 -1253 10 l-25 13 -3 822 -2 822 1009 0
c904 0 1011 2 1025 16 21 20 20 43 -1 66 -15 17 -60 18 -1025 18 l-1008 0 0
179 c0 150 3 182 16 195 14 14 141 16 1254 16 1113 0 1240 -2 1254 -16z"/>
<path d="M1384 3955 c-12 -19 -15 -41 -12 -86 5 -63 15 -79 54 -79 34 0 44 20
44 95 0 42 -5 76 -12 83 -20 20 -56 14 -74 -13z"/>
<path d="M1632 3968 c-7 -7 -12 -41 -12 -83 0 -78 9 -95 52 -95 36 0 48 24 48
98 0 44 -5 63 -18 75 -22 20 -53 22 -70 5z"/>
<path d="M1877 3962 c-19 -21 -24 -121 -7 -153 12 -22 59 -26 78 -7 7 7 12 41
12 83 0 42 -5 76 -12 83 -18 18 -53 15 -71 -6z"/>
<path d="M2122 3968 c-7 -7 -12 -41 -12 -83 0 -75 10 -95 45 -95 38 0 48 16
53 79 3 45 0 67 -12 86 -18 27 -54 33 -74 13z"/>
<path d="M2366 3964 c-19 -18 -22 -124 -6 -155 12 -22 59 -26 78 -7 7 7 12 41
12 85 0 61 -3 74 -19 83 -27 14 -47 13 -65 -6z"/>
<path d="M2612 3968 c-16 -16 -16 -150 0 -166 19 -19 55 -14 72 10 19 27 21
103 3 138 -14 28 -55 38 -75 18z"/>
<path d="M2856 3964 c-11 -11 -16 -34 -16 -75 0 -76 12 -99 50 -99 38 0 50 23
50 99 0 63 -15 91 -50 91 -10 0 -26 -7 -34 -16z"/>
<path d="M3096 3958 c-10 -13 -16 -43 -16 -73 0 -30 6 -60 16 -73 17 -24 53
-29 72 -10 16 16 16 150 0 166 -19 19 -55 14 -72 -10z"/>
<path d="M3342 3968 c-16 -16 -16 -150 0 -166 19 -19 66 -15 78 7 16 31 13
137 -6 155 -18 19 -55 21 -72 4z"/>
<path d="M3586 3958 c-18 -25 -21 -103 -6 -142 7 -20 17 -26 38 -26 15 0 33 5
40 12 16 16 16 150 0 166 -19 19 -55 14 -72 -10z"/>
<path d="M3396 3674 c-22 -21 -20 -61 3 -74 11 -5 68 -10 126 -10 117 0 145 9
145 45 0 47 -22 55 -145 55 -90 0 -117 -3 -129 -16z"/>
<path d="M2610 3374 c-8 -8 -80 -283 -161 -611 -108 -436 -146 -601 -139 -614
15 -28 49 -34 71 -13 12 13 63 198 163 601 81 321 146 593 146 606 0 44 -53
65 -80 31z"/>
<path d="M1878 2943 c-123 -122 -158 -163 -158 -183 0 -37 318 -354 346 -344
23 8 44 33 44 53 0 8 -62 77 -137 153 l-137 138 137 138 c75 76 137 145 137
154 0 20 -32 48 -55 48 -11 0 -87 -68 -177 -157z"/>
<path d="M2906 3084 c-9 -8 -16 -23 -16 -32 0 -9 62 -79 137 -154 l138 -138
-138 -138 c-92 -92 -137 -144 -137 -159 0 -26 36 -54 59 -46 31 11 331 317
331 338 0 25 -317 345 -342 345 -9 0 -24 -7 -32 -16z"/>
<path d="M1280 1495 l0 -315 1220 0 1220 0 0 315 0 315 -1220 0 -1220 0 0
-315z m314 179 c3 -9 6 -47 6 -85 l0 -70 98 3 97 3 5 80 c4 72 7 80 25 80 19
0 20 -7 20 -190 0 -183 -1 -190 -20 -190 -18 0 -20 8 -23 83 l-3 82 -99 0
-100 0 0 -74 c0 -77 -13 -104 -45 -92 -13 4 -15 34 -15 189 0 101 3 187 7 190
12 13 41 7 47 -9z m1551 6 c14 -23 -17 -40 -71 -40 l-54 0 0 -165 c0 -139 -2
-167 -15 -171 -8 -4 -22 -1 -30 6 -12 10 -15 43 -15 171 l0 159 -54 0 c-56 0
-72 9 -62 35 4 12 33 15 150 15 90 0 147 -4 151 -10z m-1005 -102 c53 -37 71
-68 72 -126 0 -93 -60 -156 -148 -154 -89 1 -150 72 -142 164 6 58 31 96 79
120 47 25 99 23 139 -4z m159 8 c6 -7 22 -45 35 -84 38 -112 40 -113 66 -40
41 113 56 113 101 0 30 -75 23 -80 69 48 29 82 44 100 65 79 13 -13 10 -29
-31 -144 -25 -72 -50 -134 -55 -140 -17 -18 -42 10 -66 76 -30 78 -38 88 -47
54 -4 -14 -16 -50 -27 -80 -28 -75 -50 -74 -79 2 -52 140 -73 210 -67 226 8
21 21 22 36 3z m1109 -6 c95 -58 96 -209 2 -264 -100 -59 -220 14 -220 134 0
115 123 188 218 130z"/>
<path d="M2008 1527 c-81 -75 -13 -210 89 -176 66 22 86 118 34 170 -38 37
-87 39 -123 6z"/>
<path d="M3287 1539 c-24 -14 -47 -62 -47 -98 0 -47 48 -95 95 -95 47 0 95 48
95 95 0 37 -24 85 -49 99 -25 13 -71 12 -94 -1z"/>
<path d="M2334 1117 c-2 -7 -3 -58 -2 -112 l3 -99 54 -3 c45 -2 59 1 78 19 33
31 32 90 -3 125 -25 25 -43 27 -86 8 -16 -6 -18 -1 -18 34 0 39 -15 56 -26 28z
m107 -87 c27 -15 26 -74 -2 -94 -47 -33 -98 29 -65 79 18 27 36 31 67 15z"/>
<path d="M1590 1100 c-11 -11 -20 -29 -20 -40 0 -23 33 -60 55 -60 32 0 66
-24 63 -44 -2 -17 -10 -21 -43 -20 -22 0 -48 4 -57 8 -13 6 -18 4 -18 -8 0
-35 87 -49 128 -20 17 12 22 24 20 47 -3 32 -11 38 -83 69 -42 19 -41 52 2 56
18 2 41 -2 52 -7 29 -16 36 4 9 23 -31 22 -84 20 -108 -4z"/>
<path d="M2810 1100 c-11 -11 -20 -29 -20 -40 0 -23 33 -60 55 -60 32 0 66
-24 63 -44 -2 -17 -10 -21 -43 -20 -22 0 -48 4 -57 8 -13 6 -18 4 -18 -8 0
-35 87 -49 128 -20 17 12 22 24 20 47 -3 32 -11 38 -83 69 -42 19 -41 52 2 56
18 2 41 -2 52 -7 29 -16 36 4 9 23 -31 22 -84 20 -108 -4z"/>
<path d="M1770 1080 c0 -11 -7 -20 -15 -20 -8 0 -15 -4 -15 -9 0 -5 7 -11 15
-15 11 -4 15 -21 15 -59 0 -55 12 -77 41 -77 27 0 34 21 10 27 -18 4 -21 13
-21 53 0 40 4 50 20 55 11 3 20 11 20 16 0 5 -9 9 -20 9 -13 0 -20 7 -20 20 0
11 -7 20 -15 20 -8 0 -15 -9 -15 -20z"/>
<path d="M2990 1080 c0 -11 -7 -20 -15 -20 -8 0 -15 -4 -15 -9 0 -5 7 -11 15
-15 11 -4 15 -21 15 -59 0 -55 12 -77 41 -77 27 0 34 21 10 27 -18 4 -21 13
-21 53 0 40 4 50 20 55 11 3 20 11 20 16 0 5 -9 9 -20 9 -13 0 -20 7 -20 20 0
11 -7 20 -15 20 -8 0 -15 -9 -15 -20z"/>
<path d="M1896 1047 c-35 -35 -36 -94 -3 -125 28 -26 88 -30 107 -7 18 22 5
30 -26 16 -22 -10 -31 -9 -50 4 -37 24 -29 34 34 37 49 3 57 6 60 24 4 29 -27
63 -65 70 -26 5 -37 1 -57 -19z m82 -19 c21 -21 13 -28 -33 -28 -25 0 -45 4
-45 8 0 15 24 32 45 32 12 0 26 -5 33 -12z"/>
<path d="M2117 1063 c-4 -4 -20 -7 -35 -8 l-27 0 0 -104 c0 -75 4 -106 13
-108 8 -3 12 7 12 31 l0 36 40 -6 c34 -6 45 -3 65 16 30 28 34 87 8 118 -20
23 -64 38 -76 25z m44 -33 c13 -7 19 -21 19 -44 0 -40 -19 -59 -56 -54 -37 4
-53 48 -30 83 18 27 36 31 67 15z"/>
<path d="M2536 1063 c-3 -3 -6 -37 -6 -73 0 -78 12 -94 65 -88 23 3 35 0 35
-8 0 -19 -19 -27 -62 -26 -38 2 -51 -11 -22 -22 28 -11 69 -6 92 10 20 14 22
23 22 110 0 72 -3 95 -12 92 -8 -3 -14 -27 -16 -59 -3 -61 -22 -85 -53 -68
-15 8 -19 21 -19 69 0 55 -9 78 -24 63z"/>
<path d="M3116 1047 c-35 -35 -36 -94 -3 -125 28 -26 88 -30 107 -7 18 22 5
30 -26 16 -22 -10 -31 -9 -50 4 -37 24 -29 34 34 37 49 3 57 6 60 24 4 29 -27
63 -65 70 -26 5 -37 1 -57 -19z m82 -19 c21 -21 13 -28 -33 -28 -25 0 -45 4
-45 8 0 15 24 32 45 32 12 0 26 -5 33 -12z"/>
<path d="M3347 1063 c-4 -3 -20 -6 -37 -5 l-30 1 0 -111 c0 -83 3 -109 13
-106 6 3 13 18 15 35 3 30 5 31 41 26 53 -7 81 21 81 81 0 36 -5 48 -26 65
-27 21 -46 26 -57 14z m49 -48 c24 -36 3 -85 -35 -85 -36 0 -51 17 -51 57 0
53 57 72 86 28z"/>
</g>
</svg>
